<svg id="Capa_1" enable-background="new 0 0 512 512" height="512" viewBox="0 0 512 512" width="512" xmlns="http://www.w3.org/2000/svg"><g><path d="m241 301.25v-75.375c0-8.34-6.785-15.125-15.125-15.125-8.284 0-15-6.716-15-15s6.716-15 15-15c5.897 0 11.528 1.149 16.696 3.215 5.197-19.184 22.749-33.34 43.554-33.34 8.284 0 15 6.716 15 15s-6.716 15-15 15c-8.34 0-15.125 6.785-15.125 15.125v30.125 75.375h22.281v-43.774c0-22.267 18.115-40.382 40.382-40.382h.759c13.35 0 24.21-10.861 24.21-24.211 0-10.268-6.509-19.449-16.197-22.848-4.38-1.536-7.802-5.014-9.268-9.417-1.466-4.404-.81-9.239 1.776-13.093 2.872-4.282 4.277-9.295 4.062-14.499-.515-12.467-10.684-22.635-23.15-23.148-5.206-.213-10.216 1.19-14.498 4.062-3.854 2.586-8.687 3.242-13.093 1.775-4.404-1.466-7.881-4.888-9.417-9.268-3.397-9.688-12.579-16.197-22.847-16.197s-19.449 6.509-22.848 16.198c-1.536 4.38-5.014 7.802-9.417 9.268-4.405 1.466-9.239.81-13.094-1.776-4.281-2.872-9.302-4.276-14.496-4.062-12.467.513-22.636 10.681-23.151 23.148-.215 5.204 1.19 10.217 4.062 14.499 2.586 3.854 3.242 8.689 1.776 13.093s-4.888 7.881-9.268 9.417c-9.58 3.36-16.088 12.435-16.196 22.582-.066 6.268 2.423 12.273 7.011 16.91 4.758 4.809 11.303 7.566 17.957 7.566 22.267 0 40.382 18.115 40.382 40.382v43.774h22.282z"/><path d="m188.719 301.25v-43.774c0-5.725-4.658-10.382-10.382-10.382-14.61 0-28.928-6.001-39.282-16.466-10.267-10.376-15.836-23.988-15.684-38.329.182-17.141 8.517-32.915 21.807-42.861-1.673-5.662-2.408-11.603-2.158-17.65 1.155-27.944 23.948-50.735 51.892-51.885 6.045-.248 11.978.486 17.634 2.155 10.053-13.461 26.058-21.808 43.454-21.808s33.401 8.347 43.456 21.807c5.657-1.669 11.588-2.404 17.633-2.155 27.944 1.151 50.737 23.942 51.891 51.886.25 6.043-.485 11.98-2.155 17.639 13.46 10.055 21.807 26.06 21.807 43.456 0 29.891-24.318 54.21-54.21 54.211h-.759c-5.725 0-10.382 4.658-10.382 10.382v43.774h188.719v-286.25c0-8.284-6.716-15-15-15h-482c-8.284 0-15 6.716-15 15v286.25zm-128.469-149.735c-.363-8.101 7.154-15 15-15 8.409 0 14.636 6.873 15 15 .363 8.101-7.154 15-15 15-8.409 0-14.636-6.873-15-15zm26.083 83.818c-8.409 0-14.636-6.873-15-15-.363-8.101 7.154-15 15-15 8.409 0 14.636 6.873 15 15 .363 8.101-7.153 15-15 15zm15.859-134.744c-2.952 3.138-6.937 4.723-10.93 4.723-3.685 0-7.377-1.35-10.274-4.073l-16.015-15.062c-6.034-5.676-6.325-15.169-.65-21.204 5.677-6.034 15.168-6.325 21.204-.65l16.015 15.062c6.034 5.677 6.325 15.17.65 21.204zm281.475-13.256c-8.409 0-14.636-6.873-15-15-.363-8.101 7.154-15 15-15 8.409 0 14.636 6.873 15 15 .362 8.101-7.154 15-15 15zm43.333 188c-8.409 0-14.636-6.873-15-15-.363-8.101 7.154-15 15-15 8.409 0 14.636 6.873 15 15 .363 8.101-7.154 15-15 15zm20.936-129.556-15.062 16.015c-2.952 3.138-6.937 4.723-10.93 4.723-3.686 0-7.377-1.349-10.274-4.073-6.034-5.676-6.325-15.169-.65-21.204l15.062-16.015c5.676-6.034 15.168-6.325 21.204-.65 6.034 5.676 6.325 15.169.65 21.204z"/><path d="m376.5 482h-75.375v-60.5h-90.25v60.5h-75.375c-8.284 0-15 6.716-15 15s6.716 15 15 15h241c8.284 0 15-6.716 15-15s-6.716-15-15-15z"/><path d="m0 331.25v45.25c0 8.284 6.716 15 15 15h482c8.284 0 15-6.716 15-15v-45.25z"/></g></svg>